<svg width="432" height="438" viewBox="0 0 432 438" fill="none" xmlns="http://www.w3.org/2000/svg">
<path d="M218.774 437.873C98.1437 437.873 0 339.638 0 218.894C0 98.1933 98.1437 0 218.774 0C313.555 0 396.652 60.7082 426.242 149.562H338.228C313.513 106.818 268.414 80.5657 218.774 80.5657C142.529 80.5657 80.4905 142.62 80.4905 218.894C80.4905 295.211 142.529 357.308 218.774 357.308C263.076 357.308 305.023 335.768 330.957 299.755L345.331 279.771H246.768V209.976H432C432 210.775 431.958 212.962 431.958 212.962C431.874 227.856 431.411 247.293 428.806 265.972C426.537 282.212 422.711 296.642 417.078 310.063C401.065 348.178 371.138 382.13 332.806 405.689C298.592 426.725 259.124 437.873 218.774 437.873Z" fill="url(#paint0_linear_629_401)"/>
<path d="M0 218.895C0 339.639 98.1437 437.874 218.774 437.874C259.124 437.874 298.592 426.725 332.806 405.69C371.138 382.131 401.065 348.179 417.078 310.062C422.711 296.642 426.537 282.211 428.806 265.972C431.411 247.292 431.874 227.855 431.958 212.963C431.958 212.963 432 210.776 432 209.976H246.768V279.771H345.331L330.957 299.755C305.023 335.767 263.076 357.308 218.774 357.308C142.529 357.308 80.4905 295.212 80.4905 218.895H0Z" fill="url(#paint1_linear_629_401)"/>
<path d="M426.242 149.562C396.653 60.7082 313.556 0 218.775 0V80.5657C268.415 80.5657 313.514 106.818 338.229 149.562H426.242Z" fill="url(#paint2_linear_629_401)"/>
<defs>
<linearGradient id="paint0_linear_629_401" x1="308.013" y1="-1.76068" x2="52.9337" y2="554.378" gradientUnits="userSpaceOnUse">
<stop stop-color="#7A9EF1"/>
<stop offset="0.5026" stop-color="#3ABAB4"/>
<stop offset="1" stop-color="#16716F"/>
</linearGradient>
<linearGradient id="paint1_linear_629_401" x1="330.078" y1="257.283" x2="66.7491" y2="371.96" gradientUnits="userSpaceOnUse">
<stop stop-color="#007784"/>
<stop offset="1" stop-color="#D9D9D9" stop-opacity="0"/>
</linearGradient>
<linearGradient id="paint2_linear_629_401" x1="235.577" y1="61.3479" x2="357.139" y2="135.566" gradientUnits="userSpaceOnUse">
<stop stop-color="#6FA3E7"/>
<stop offset="1" stop-color="#4474C8"/>
</linearGradient>
</defs>
</svg>
